<svg xmlns="http://www.w3.org/2000/svg" fill="none" viewBox="0 0 357 261"><g filter="url(#a)"><path fill="url(#b)" d="m153.644 63-18.5 146.5c-.333.667-.3 3.4 2.5 9s9.167 7.333 12 7.5h148.5c2.5.167 8.5-.7 12.5-5.5s4-10.333 3.5-12.5l-18-145h-32.5v23c.833.5 2.6 2.3 3 5.5.4 3.2-1.833 6.6667-3 8-2.667 1.833-9.2 4.4-14 0-4.8-4.4-2.333-11.5-.5-14.5V63h-49v23c.667.1667 2.1 1.8 2.5 7 .5 6.5-7 9.5-10 9s-7.5-1.5-9.5-7c-1.6-4.4 1-8.5 2.5-10V63h-32Z"/></g><g filter="url(#c)"><path fill="url(#d)" d="M188.442 93.0224c.8 4 3.333 4.6667 4.5 4.5 4.4 0 5.167-3 5-4.5V50.0225c.833-7 7.3-21.2 26.5-22 19.2-.8 26.333 15 27.5 23v42.5c0 1.3333 1 3.9999 5 3.9999s4.667-2.6666 4.5-3.9999c0 0 .442-30.9776-.5-44.0001-.942-13.0224-10.5-29.7-36.5-30.5-26-.8-34.833 20-36 30.5-.333 12.8334-.8 39.5 0 43.5Z"/></g><g filter="url(#e)"><path fill="url(#f)" fill-rule="evenodd" d="M35.9657 15.4427c1.7984-4.0357 6.5279-5.8493 10.5636-4.0509L103.53 36.793c4.035 1.7984 5.849 6.5279 4.051 10.5636l-.038.0841L35.5725 16.325l.3932-.8823Zm-2.5498 5.7216-9.8042 22.0008c-1.7984 4.0357.0152 8.7652 4.0509 10.5636L84.663 79.1298c4.0357 1.7985 8.7652-.0152 10.5636-4.0509l10.1594-22.7988-71.9701-31.1158Zm-.3416 24.1111c.6368-1.4786 2.3518-2.1611 3.8304-1.5242l8.1898 3.5271c1.4787.6368 2.1611 2.3518 1.5243 3.8304-.6368 1.4787-2.3518 2.1611-3.8304 1.5243l-8.1898-3.5272c-1.4787-.6368-2.1611-2.3517-1.5243-3.8304Z" clip-rule="evenodd"/></g><g filter="url(#g)"><path fill="url(#h)" d="m64.164 209.599-9.6897 11.509 14.9714.919 8.4899 12.626 5.122-14.146 14.5987-3.709-11.8857-9.621.9952-15.149-12.622 8.437-14.4823-5.603 4.5025 14.737Z"/></g><g filter="url(#i)"><path fill="url(#j)" fill-rule="evenodd" d="M321.601 114.41c-4.957-2.436-10.95-.392-13.385 4.565l-38.806 78.982c-2.436 4.957-.392 10.949 4.565 13.385l41.286 20.285c4.957 2.435 10.95.391 13.385-4.566l38.806-78.981c2.436-4.957.392-10.95-4.565-13.385l-41.286-20.285Zm-3.497 11.652c-3.47-1.705-7.664-.274-9.369 3.196l-28.223 57.441c-1.705 3.47-.274 7.665 3.196 9.369l37.696 18.521c3.469 1.705 7.664.274 9.369-3.195l28.223-57.441c1.705-3.47.274-7.665-3.196-9.37l-37.696-18.521Zm-16.147 89.557c-1.34 2.726-4.636 3.851-7.362 2.511-2.726-1.339-3.851-4.635-2.511-7.362 1.339-2.726 4.635-3.85 7.362-2.511 2.726 1.34 3.85 4.636 2.511 7.362Zm27.76-91.65c-.743-.366-1.642-.059-2.007.684-.366.744-.059 1.643.685 2.008l19.745 9.702c.743.365 1.642.058 2.008-.685.365-.744.058-1.643-.685-2.008l-19.746-9.701Z" clip-rule="evenodd"/></g><defs><linearGradient id="b" x1="295.5" x2="138.5" y1="67" y2="219.5" gradientUnits="userSpaceOnUse"><stop stop-color="#C5D7E1"/><stop offset="1" stop-color="#FCFCFC"/></linearGradient><linearGradient id="d" x1="251" x2="184.5" y1="24.5" y2="91.5" gradientUnits="userSpaceOnUse"><stop stop-color="#CCE0EA"/><stop offset="1" stop-color="#E3E7EC"/></linearGradient><linearGradient id="f" x1="109.712" x2="24.8058" y1="42.0648" y2="48.8052" gradientUnits="userSpaceOnUse"><stop stop-color="#C7D9E2"/><stop offset="1" stop-color="#FAFBFB"/></linearGradient><linearGradient id="h" x1="95.1248" x2="53.4329" y1="207.836" y2="217.317" gradientUnits="userSpaceOnUse"><stop stop-color="#BFDAE9"/><stop offset="1" stop-color="#fff"/></linearGradient><linearGradient id="j" x1="263.457" x2="375.003" y1="210.073" y2="140.648" gradientUnits="userSpaceOnUse"><stop stop-color="#FBFBFC"/><stop offset="1" stop-color="#C7D9E2"/></linearGradient><filter id="a" width="219.371" height="203.019" x="99.0002" y="57" color-interpolation-filters="sRGB" filterUnits="userSpaceOnUse"><feFlood flood-opacity="0" result="BackgroundImageFix"/><feColorMatrix in="SourceAlpha" result="hardAlpha" values="0 0 0 0 0 0 0 0 0 0 0 0 0 0 0 0 0 0 127 0"/><feOffset dx="1.5"/><feComposite in2="hardAlpha" operator="out"/><feColorMatrix values="0 0 0 0 1 0 0 0 0 1 0 0 0 0 1 0 0 0 1 0"/><feBlend in2="BackgroundImageFix" result="effect1_dropShadow_1_16"/><feColorMatrix in="SourceAlpha" result="hardAlpha" values="0 0 0 0 0 0 0 0 0 0 0 0 0 0 0 0 0 0 127 0"/><feOffset dx="-16" dy="14"/><feGaussianBlur stdDeviation="10"/><feComposite in2="hardAlpha" operator="out"/><feColorMatrix values="0 0 0 0 0.141007 0 0 0 0 0.302937 0 0 0 0 0.545833 0 0 0 0.2 0"/><feBlend in2="effect1_dropShadow_1_16" result="effect2_dropShadow_1_16"/><feBlend in="SourceGraphic" in2="effect2_dropShadow_1_16" result="shape"/></filter><filter id="c" width="89.5452" height="94.5454" x="176" y="15" color-interpolation-filters="sRGB" filterUnits="userSpaceOnUse"><feFlood flood-opacity="0" result="BackgroundImageFix"/><feColorMatrix in="SourceAlpha" result="hardAlpha" values="0 0 0 0 0 0 0 0 0 0 0 0 0 0 0 0 0 0 127 0"/><feOffset dx="1"/><feComposite in2="hardAlpha" operator="out"/><feColorMatrix values="0 0 0 0 1 0 0 0 0 1 0 0 0 0 1 0 0 0 1 0"/><feBlend in2="BackgroundImageFix" result="effect1_dropShadow_1_16"/><feColorMatrix in="SourceAlpha" result="hardAlpha" values="0 0 0 0 0 0 0 0 0 0 0 0 0 0 0 0 0 0 127 0"/><feOffset dx="-4" dy="4"/><feGaussianBlur stdDeviation="4"/><feComposite in2="hardAlpha" operator="out"/><feColorMatrix values="0 0 0 0 0.18125 0 0 0 0 0.30875 0 0 0 0 0.5 0 0 0 0.2 0"/><feBlend in2="effect1_dropShadow_1_16" result="effect2_dropShadow_1_16"/><feBlend in="SourceGraphic" in2="effect2_dropShadow_1_16" result="shape"/></filter><filter id="e" width="117.358" height="101.127" x=".916992" y=".697021" color-interpolation-filters="sRGB" filterUnits="userSpaceOnUse"><feFlood flood-opacity="0" result="BackgroundImageFix"/><feColorMatrix in="SourceAlpha" result="hardAlpha" values="0 0 0 0 0 0 0 0 0 0 0 0 0 0 0 0 0 0 127 0"/><feOffset dx="1"/><feComposite in2="hardAlpha" operator="out"/><feColorMatrix values="0 0 0 0 1 0 0 0 0 1 0 0 0 0 1 0 0 0 1 0"/><feBlend in2="BackgroundImageFix" result="effect1_dropShadow_1_16"/><feColorMatrix in="SourceAlpha" result="hardAlpha" values="0 0 0 0 0 0 0 0 0 0 0 0 0 0 0 0 0 0 127 0"/><feOffset dx="-6" dy="6"/><feGaussianBlur stdDeviation="8"/><feComposite in2="hardAlpha" operator="out"/><feColorMatrix values="0 0 0 0 0.130295 0 0 0 0 0.220578 0 0 0 0 0.395833 0 0 0 0.15 0"/><feBlend in2="effect1_dropShadow_1_16" result="effect2_dropShadow_1_16"/><feBlend in="SourceGraphic" in2="effect2_dropShadow_1_16" result="shape"/></filter><filter id="g" width="61.1819" height="59.6248" x="37.4744" y="192.028" color-interpolation-filters="sRGB" filterUnits="userSpaceOnUse"><feFlood flood-opacity="0" result="BackgroundImageFix"/><feColorMatrix in="SourceAlpha" result="hardAlpha" values="0 0 0 0 0 0 0 0 0 0 0 0 0 0 0 0 0 0 127 0"/><feOffset dx="1"/><feComposite in2="hardAlpha" operator="out"/><feColorMatrix values="0 0 0 0 1 0 0 0 0 1 0 0 0 0 1 0 0 0 1 0"/><feBlend in2="BackgroundImageFix" result="effect1_dropShadow_1_16"/><feColorMatrix in="SourceAlpha" result="hardAlpha" values="0 0 0 0 0 0 0 0 0 0 0 0 0 0 0 0 0 0 127 0"/><feOffset dx="-9" dy="9"/><feGaussianBlur stdDeviation="4"/><feComposite in2="hardAlpha" operator="out"/><feColorMatrix values="0 0 0 0 0.242604 0 0 0 0 0.373896 0 0 0 0 0.570833 0 0 0 0.2 0"/><feBlend in2="effect1_dropShadow_1_16" result="effect2_dropShadow_1_16"/><feBlend in="SourceGraphic" in2="effect2_dropShadow_1_16" result="shape"/></filter><filter id="i" width="128.096" height="147.271" x="244.383" y="109.383" color-interpolation-filters="sRGB" filterUnits="userSpaceOnUse"><feFlood flood-opacity="0" result="BackgroundImageFix"/><feColorMatrix in="SourceAlpha" result="hardAlpha" values="0 0 0 0 0 0 0 0 0 0 0 0 0 0 0 0 0 0 127 0"/><feOffset dx="2"/><feComposite in2="hardAlpha" operator="out"/><feColorMatrix values="0 0 0 0 1 0 0 0 0 1 0 0 0 0 1 0 0 0 1 0"/><feBlend in2="BackgroundImageFix" result="effect1_dropShadow_1_16"/><feColorMatrix in="SourceAlpha" result="hardAlpha" values="0 0 0 0 0 0 0 0 0 0 0 0 0 0 0 0 0 0 127 0"/><feOffset dx="-10" dy="10"/><feGaussianBlur stdDeviation="7"/><feComposite in2="hardAlpha" operator="out"/><feColorMatrix values="0 0 0 0 0.174601 0 0 0 0 0.293094 0 0 0 0 0.470833 0 0 0 0.2 0"/><feBlend in2="effect1_dropShadow_1_16" result="effect2_dropShadow_1_16"/><feBlend in="SourceGraphic" in2="effect2_dropShadow_1_16" result="shape"/></filter></defs></svg>
