<svg xmlns="http://www.w3.org/2000/svg" fill="none" viewBox="0 0 189 254"><g filter="url(#a)"><path fill="url(#b)" d="m114.735 117.054-12.637 100.065c-.227.456-.204 2.323 1.708 6.148 1.913 3.825 6.261 5.009 8.197 5.122h101.431c1.708.114 5.806-.478 8.538-3.756 2.732-3.279 2.732-7.058 2.391-8.538l-12.295-99.041h-22.199v15.71c.569.341 1.776 1.571 2.049 3.756.273 2.186-1.252 4.554-2.049 5.465-1.821 1.252-6.284 3.005-9.562 0-3.279-3.006-1.594-7.855-.342-9.904v-15.027h-33.469v15.71c.455.113 1.434 1.229 1.708 4.781.341 4.44-4.782 6.489-6.831 6.147-2.049-.341-5.123-1.024-6.489-4.781-1.092-3.005.683-5.806 1.708-6.83v-15.027h-21.857Z"/></g><g filter="url(#c)"><path fill="url(#d)" d="m27.9194 214.708 1.0089 11.756 8.813-7.793 11.7103 2.294-5.0045-10.686 6.0392-10.153-11.9272 1.256-7.8496-8.953-2.3212 11.678-11.1389 4.925 10.67 5.676Z"/></g><g filter="url(#e)"><path fill="url(#f)" d="M138.503 137.56c.547 2.732 2.277 3.188 3.074 3.074 3.005 0 3.529-2.049 3.415-3.074v-29.37c.569-4.782 4.986-14.4809 18.101-15.0273 13.114-.5464 17.987 10.2453 18.783 15.7103v29.029c0 .911.683 2.732 3.416 2.732 2.732 0 3.187-1.821 3.073-2.732 0 0 .302-21.159-.341-30.054-.643-8.8948-7.172-20.2862-24.931-20.8327-17.759-.5464-23.793 13.6607-24.59 20.8327-.227 8.766-.546 26.98 0 29.712Z"/></g><g filter="url(#g)"><path fill="url(#h)" fill-rule="evenodd" d="M149.722 14.7808c1.977-3.6179 6.432-5.16627 10.263-3.4553l41.503 18.5339c3.607 1.6105 5.44 5.564 4.505 9.2685l-56.271-24.3471Zm-1.787 3.9525-7.423 16.6915c-1.795 4.0371.02 8.7702 4.054 10.5718l41.503 18.5339c4.034 1.8016 8.76-.0106 10.556-4.0476l7.714-17.3452-56.404-24.4044Zm-.572 19.6148c.521-1.2107 1.925-1.7693 3.135-1.2476l6.232 2.6855c1.211.5216 1.769 1.9259 1.248 3.1365-.521 1.2107-1.924 1.7692-3.135 1.2476l-6.232-2.6855c-1.21-.5216-1.769-1.9259-1.248-3.1365Z" clip-rule="evenodd"/></g><defs><linearGradient id="b" x1="211.628" x2="104.391" y1="119.786" y2="223.95" gradientUnits="userSpaceOnUse"><stop stop-color="#C5D7E1"/><stop offset="1" stop-color="#FCFCFC"/></linearGradient><linearGradient id="d" x1="44.112" x2="26.2483" y1="196.56" y2="224.939" gradientUnits="userSpaceOnUse"><stop stop-color="#BFDAE9"/><stop offset="1" stop-color="#fff"/></linearGradient><linearGradient id="f" x1="181.233" x2="135.811" y1="90.7567" y2="136.52" gradientUnits="userSpaceOnUse"><stop stop-color="#CCE0EA"/><stop offset="1" stop-color="#E3E7EC"/></linearGradient><linearGradient id="h" x1="207.8" x2="140.674" y1="34.7701" y2="38.9098" gradientUnits="userSpaceOnUse"><stop stop-color="#C7D9E2"/><stop offset="1" stop-color="#FAFBFB"/></linearGradient><filter id="a" width="162.518" height="151.348" x="66.0002" y="111.054" color-interpolation-filters="sRGB" filterUnits="userSpaceOnUse"><feFlood flood-opacity="0" result="BackgroundImageFix"/><feColorMatrix in="SourceAlpha" result="hardAlpha" values="0 0 0 0 0 0 0 0 0 0 0 0 0 0 0 0 0 0 127 0"/><feOffset dx="1"/><feComposite in2="hardAlpha" operator="out"/><feColorMatrix values="0 0 0 0 1 0 0 0 0 1 0 0 0 0 1 0 0 0 1 0"/><feBlend in2="BackgroundImageFix" result="effect1_dropShadow_9_954"/><feColorMatrix in="SourceAlpha" result="hardAlpha" values="0 0 0 0 0 0 0 0 0 0 0 0 0 0 0 0 0 0 127 0"/><feOffset dx="-16" dy="14"/><feGaussianBlur stdDeviation="10"/><feComposite in2="hardAlpha" operator="out"/><feColorMatrix values="0 0 0 0 0.141007 0 0 0 0 0.302937 0 0 0 0 0.545833 0 0 0 0.2 0"/><feBlend in2="effect1_dropShadow_9_954" result="effect2_dropShadow_9_954"/><feBlend in="SourceGraphic" in2="effect2_dropShadow_9_954" result="shape"/></filter><filter id="c" width="51.2368" height="51.0354" x=".249512" y="192.429" color-interpolation-filters="sRGB" filterUnits="userSpaceOnUse"><feFlood flood-opacity="0" result="BackgroundImageFix"/><feColorMatrix in="SourceAlpha" result="hardAlpha" values="0 0 0 0 0 0 0 0 0 0 0 0 0 0 0 0 0 0 127 0"/><feOffset dx="1"/><feComposite in2="hardAlpha" operator="out"/><feColorMatrix values="0 0 0 0 1 0 0 0 0 1 0 0 0 0 1 0 0 0 1 0"/><feBlend in2="BackgroundImageFix" result="effect1_dropShadow_9_954"/><feColorMatrix in="SourceAlpha" result="hardAlpha" values="0 0 0 0 0 0 0 0 0 0 0 0 0 0 0 0 0 0 127 0"/><feOffset dx="-9" dy="9"/><feGaussianBlur stdDeviation="4"/><feComposite in2="hardAlpha" operator="out"/><feColorMatrix values="0 0 0 0 0.242604 0 0 0 0 0.373896 0 0 0 0 0.570833 0 0 0 0.2 0"/><feBlend in2="effect1_dropShadow_9_954" result="effect2_dropShadow_9_954"/><feBlend in="SourceGraphic" in2="effect2_dropShadow_9_954" result="shape"/></filter><filter id="e" width="66.2344" height="69.6497" x="126.202" y="83" color-interpolation-filters="sRGB" filterUnits="userSpaceOnUse"><feFlood flood-opacity="0" result="BackgroundImageFix"/><feColorMatrix in="SourceAlpha" result="hardAlpha" values="0 0 0 0 0 0 0 0 0 0 0 0 0 0 0 0 0 0 127 0"/><feOffset dx="1"/><feComposite in2="hardAlpha" operator="out"/><feColorMatrix values="0 0 0 0 1 0 0 0 0 1 0 0 0 0 1 0 0 0 1 0"/><feBlend in2="BackgroundImageFix" result="effect1_dropShadow_9_954"/><feColorMatrix in="SourceAlpha" result="hardAlpha" values="0 0 0 0 0 0 0 0 0 0 0 0 0 0 0 0 0 0 127 0"/><feOffset dx="-4" dy="4"/><feGaussianBlur stdDeviation="4"/><feComposite in2="hardAlpha" operator="out"/><feColorMatrix values="0 0 0 0 0.18125 0 0 0 0 0.30875 0 0 0 0 0.5 0 0 0 0.2 0"/><feBlend in2="effect1_dropShadow_9_954" result="effect2_dropShadow_9_954"/><feBlend in="SourceGraphic" in2="effect2_dropShadow_9_954" result="shape"/></filter><filter id="g" width="98.4155" height="86.5986" x="117.819" y=".628662" color-interpolation-filters="sRGB" filterUnits="userSpaceOnUse"><feFlood flood-opacity="0" result="BackgroundImageFix"/><feColorMatrix in="SourceAlpha" result="hardAlpha" values="0 0 0 0 0 0 0 0 0 0 0 0 0 0 0 0 0 0 127 0"/><feOffset dx="1"/><feComposite in2="hardAlpha" operator="out"/><feColorMatrix values="0 0 0 0 1 0 0 0 0 1 0 0 0 0 1 0 0 0 1 0"/><feBlend in2="BackgroundImageFix" result="effect1_dropShadow_9_954"/><feColorMatrix in="SourceAlpha" result="hardAlpha" values="0 0 0 0 0 0 0 0 0 0 0 0 0 0 0 0 0 0 127 0"/><feOffset dx="-6" dy="6"/><feGaussianBlur stdDeviation="8"/><feComposite in2="hardAlpha" operator="out"/><feColorMatrix values="0 0 0 0 0.130295 0 0 0 0 0.220578 0 0 0 0 0.395833 0 0 0 0.15 0"/><feBlend in2="effect1_dropShadow_9_954" result="effect2_dropShadow_9_954"/><feBlend in="SourceGraphic" in2="effect2_dropShadow_9_954" result="shape"/></filter></defs></svg>
