<svg xmlns="http://www.w3.org/2000/svg" fill="none" viewBox="0 0 504 247"><g filter="url(#a)"><path fill="url(#b)" d="m223 49-19 147 3 9c2 5 9 7 12 7h148c3 0 9-1 13-5 4-5 4-11 3-13L365 49h-32v23l3 6c0 3-2 6-3 8-3 1-10 4-14 0-5-5-3-12-1-15V49h-49v23c1 0 2 2 3 7 0 7-7 10-10 9-3 0-8-1-10-7-1-4 1-8 3-10V49h-32Z"/></g><g filter="url(#c)"><path fill="url(#d)" d="M257 79c1 4 4 5 5 5 4 0 5-3 5-5V36c1-7 7-21 26-22 20-1 27 15 28 23v43c0 1 1 4 5 4s5-3 4-4V36c-1-13-11-30-37-31s-34 20-36 31v43Z"/></g><g filter="url(#e)"><path fill="url(#f)" fill-rule="evenodd" d="M39 15c2-4 6-5 10-4l68 30c4 2 6 7 4 11l-1 1-82-35 1-3Zm-4 8L24 49c-2 4 0 9 4 11l67 30c4 2 9 0 11-4l12-27-83-36Zm0 28c1-2 3-3 4-2l10 4a3 3 0 1 1-3 6l-9-4c-2-1-3-3-2-4Z" clip-rule="evenodd"/></g><g filter="url(#g)"><path fill="url(#h)" d="m95 187-10 12 15 1 9 12 5-14 15-4-12-9 1-15-13 8-14-6 4 15Z"/></g><g filter="url(#i)"><path fill="url(#j)" d="m480 46 1 11 9-7 11 2-5-11 6-10-11 1-8-9-3 12-11 5 11 6Z"/></g><g filter="url(#k)"><path fill="url(#l)" fill-rule="evenodd" d="M413 100c-5-2-11 0-14 5l-39 79c-2 5 0 11 5 13l41 21c5 2 11 0 14-5l38-79c3-5 1-11-4-13l-41-21Zm-4 12c-3-2-8 0-9 3l-28 58c-2 3-1 7 3 9l37 19c4 1 8 0 10-4l28-57c2-4 0-8-3-9l-38-19Zm-16 90a6 6 0 1 1-10-5 6 6 0 0 1 10 5Zm28-92a1 1 0 1 0-2 3l20 9a2 2 0 0 0 1-2l-19-10Z" clip-rule="evenodd"/></g><defs><linearGradient id="b" x1="364.5" x2="207.5" y1="53" y2="205.5" gradientUnits="userSpaceOnUse"><stop stop-color="#C5D7E1"/><stop offset="1" stop-color="#FCFCFC"/></linearGradient><linearGradient id="d" x1="320" x2="253.5" y1="10.5" y2="77.5" gradientUnits="userSpaceOnUse"><stop stop-color="#CCE0EA"/><stop offset="1" stop-color="#E3E7EC"/></linearGradient><linearGradient id="f" x1="122.8" x2="25.5" y1="47" y2="54.7" gradientUnits="userSpaceOnUse"><stop stop-color="#C7D9E2"/><stop offset="1" stop-color="#FAFBFB"/></linearGradient><linearGradient id="h" x1="126.1" x2="84.4" y1="185.4" y2="194.9" gradientUnits="userSpaceOnUse"><stop stop-color="#BFDAE9"/><stop offset="1" stop-color="#fff"/></linearGradient><linearGradient id="j" x1="496.1" x2="478.2" y1="27.6" y2="55.9" gradientUnits="userSpaceOnUse"><stop stop-color="#BFDAE9"/><stop offset="1" stop-color="#fff"/></linearGradient><linearGradient id="l" x1="354.5" x2="466" y1="196.1" y2="126.6" gradientUnits="userSpaceOnUse"><stop stop-color="#FBFBFC"/><stop offset="1" stop-color="#C7D9E2"/></linearGradient><filter id="a" width="219.4" height="203" x="168" y="43" color-interpolation-filters="sRGB" filterUnits="userSpaceOnUse"><feFlood flood-opacity="0" result="BackgroundImageFix"/><feColorMatrix in="SourceAlpha" result="hardAlpha" values="0 0 0 0 0 0 0 0 0 0 0 0 0 0 0 0 0 0 127 0"/><feOffset dx="2"/><feComposite in2="hardAlpha" operator="out"/><feColorMatrix values="0 0 0 0 1 0 0 0 0 1 0 0 0 0 1 0 0 0 1 0"/><feBlend in2="BackgroundImageFix" result="effect1_dropShadow_1_16"/><feColorMatrix in="SourceAlpha" result="hardAlpha" values="0 0 0 0 0 0 0 0 0 0 0 0 0 0 0 0 0 0 127 0"/><feOffset dx="-16" dy="14"/><feGaussianBlur stdDeviation="10"/><feComposite in2="hardAlpha" operator="out"/><feColorMatrix values="0 0 0 0 0.141007 0 0 0 0 0.302937 0 0 0 0 0.545833 0 0 0 0.2 0"/><feBlend in2="effect1_dropShadow_1_16" result="effect2_dropShadow_1_16"/><feBlend in="SourceGraphic" in2="effect2_dropShadow_1_16" result="shape"/></filter><filter id="c" width="89.5" height="94.5" x="245" y="1" color-interpolation-filters="sRGB" filterUnits="userSpaceOnUse"><feFlood flood-opacity="0" result="BackgroundImageFix"/><feColorMatrix in="SourceAlpha" result="hardAlpha" values="0 0 0 0 0 0 0 0 0 0 0 0 0 0 0 0 0 0 127 0"/><feOffset dx="1"/><feComposite in2="hardAlpha" operator="out"/><feColorMatrix values="0 0 0 0 1 0 0 0 0 1 0 0 0 0 1 0 0 0 1 0"/><feBlend in2="BackgroundImageFix" result="effect1_dropShadow_1_16"/><feColorMatrix in="SourceAlpha" result="hardAlpha" values="0 0 0 0 0 0 0 0 0 0 0 0 0 0 0 0 0 0 127 0"/><feOffset dx="-4" dy="4"/><feGaussianBlur stdDeviation="4"/><feComposite in2="hardAlpha" operator="out"/><feColorMatrix values="0 0 0 0 0.18125 0 0 0 0 0.30875 0 0 0 0 0.5 0 0 0 0.2 0"/><feBlend in2="effect1_dropShadow_1_16" result="effect2_dropShadow_1_16"/><feBlend in="SourceGraphic" in2="effect2_dropShadow_1_16" result="shape"/></filter><filter id="e" width="130.5" height="111.9" x="1" y="1" color-interpolation-filters="sRGB" filterUnits="userSpaceOnUse"><feFlood flood-opacity="0" result="BackgroundImageFix"/><feColorMatrix in="SourceAlpha" result="hardAlpha" values="0 0 0 0 0 0 0 0 0 0 0 0 0 0 0 0 0 0 127 0"/><feOffset dx="1"/><feComposite in2="hardAlpha" operator="out"/><feColorMatrix values="0 0 0 0 1 0 0 0 0 1 0 0 0 0 1 0 0 0 1 0"/><feBlend in2="BackgroundImageFix" result="effect1_dropShadow_1_16"/><feColorMatrix in="SourceAlpha" result="hardAlpha" values="0 0 0 0 0 0 0 0 0 0 0 0 0 0 0 0 0 0 127 0"/><feOffset dx="-6" dy="6"/><feGaussianBlur stdDeviation="8"/><feComposite in2="hardAlpha" operator="out"/><feColorMatrix values="0 0 0 0 0.130295 0 0 0 0 0.220578 0 0 0 0 0.395833 0 0 0 0.15 0"/><feBlend in2="effect1_dropShadow_1_16" result="effect2_dropShadow_1_16"/><feBlend in="SourceGraphic" in2="effect2_dropShadow_1_16" result="shape"/></filter><filter id="g" width="61.2" height="59.6" x="69" y="170" color-interpolation-filters="sRGB" filterUnits="userSpaceOnUse"><feFlood flood-opacity="0" result="BackgroundImageFix"/><feColorMatrix in="SourceAlpha" result="hardAlpha" values="0 0 0 0 0 0 0 0 0 0 0 0 0 0 0 0 0 0 127 0"/><feOffset dx="1"/><feComposite in2="hardAlpha" operator="out"/><feColorMatrix values="0 0 0 0 1 0 0 0 0 1 0 0 0 0 1 0 0 0 1 0"/><feBlend in2="BackgroundImageFix" result="effect1_dropShadow_1_16"/><feColorMatrix in="SourceAlpha" result="hardAlpha" values="0 0 0 0 0 0 0 0 0 0 0 0 0 0 0 0 0 0 127 0"/><feOffset dx="-9" dy="9"/><feGaussianBlur stdDeviation="4"/><feComposite in2="hardAlpha" operator="out"/><feColorMatrix values="0 0 0 0 0.242604 0 0 0 0 0.373896 0 0 0 0 0.570833 0 0 0 0.2 0"/><feBlend in2="effect1_dropShadow_1_16" result="effect2_dropShadow_1_16"/><feBlend in="SourceGraphic" in2="effect2_dropShadow_1_16" result="shape"/></filter><filter id="i" width="51.2" height="51" x="452" y="23" color-interpolation-filters="sRGB" filterUnits="userSpaceOnUse"><feFlood flood-opacity="0" result="BackgroundImageFix"/><feColorMatrix in="SourceAlpha" result="hardAlpha" values="0 0 0 0 0 0 0 0 0 0 0 0 0 0 0 0 0 0 127 0"/><feOffset dx="1"/><feComposite in2="hardAlpha" operator="out"/><feColorMatrix values="0 0 0 0 1 0 0 0 0 1 0 0 0 0 1 0 0 0 1 0"/><feBlend in2="BackgroundImageFix" result="effect1_dropShadow_1_16"/><feColorMatrix in="SourceAlpha" result="hardAlpha" values="0 0 0 0 0 0 0 0 0 0 0 0 0 0 0 0 0 0 127 0"/><feOffset dx="-9" dy="9"/><feGaussianBlur stdDeviation="4"/><feComposite in2="hardAlpha" operator="out"/><feColorMatrix values="0 0 0 0 0.242604 0 0 0 0 0.373896 0 0 0 0 0.570833 0 0 0 0.2 0"/><feBlend in2="effect1_dropShadow_1_16" result="effect2_dropShadow_1_16"/><feBlend in="SourceGraphic" in2="effect2_dropShadow_1_16" result="shape"/></filter><filter id="k" width="128.1" height="147.3" x="335" y="95" color-interpolation-filters="sRGB" filterUnits="userSpaceOnUse"><feFlood flood-opacity="0" result="BackgroundImageFix"/><feColorMatrix in="SourceAlpha" result="hardAlpha" values="0 0 0 0 0 0 0 0 0 0 0 0 0 0 0 0 0 0 127 0"/><feOffset dx="2"/><feComposite in2="hardAlpha" operator="out"/><feColorMatrix values="0 0 0 0 1 0 0 0 0 1 0 0 0 0 1 0 0 0 1 0"/><feBlend in2="BackgroundImageFix" result="effect1_dropShadow_1_16"/><feColorMatrix in="SourceAlpha" result="hardAlpha" values="0 0 0 0 0 0 0 0 0 0 0 0 0 0 0 0 0 0 127 0"/><feOffset dx="-10" dy="10"/><feGaussianBlur stdDeviation="7"/><feComposite in2="hardAlpha" operator="out"/><feColorMatrix values="0 0 0 0 0.174601 0 0 0 0 0.293094 0 0 0 0 0.470833 0 0 0 0.2 0"/><feBlend in2="effect1_dropShadow_1_16" result="effect2_dropShadow_1_16"/><feBlend in="SourceGraphic" in2="effect2_dropShadow_1_16" result="shape"/></filter></defs></svg>